<svg width="177" height="188" viewBox="0 0 177 188" fill="none" xmlns="http://www.w3.org/2000/svg">
<path fill-rule="evenodd" clip-rule="evenodd" d="M29.7377 17.4975C30.6132 18.0983 31.1359 19.0881 31.1359 20.1452V74.1822C31.1359 77.0477 27.6495 78.4842 25.6079 76.4599L0.951016 52.0125C0.342153 51.4088 0 50.5893 0 49.7347V42.674V3.22368C0 0.62919 2.93202 -0.89875 5.08083 0.575942L29.7377 17.4975ZM91.0029 135.618C89.744 136.903 87.6699 136.919 86.392 135.651L38.7075 88.3664C38.0987 87.7627 37.7566 86.9433 37.7566 86.0888V29.0513C37.7566 26.4569 40.6884 24.929 42.8372 26.4034L62.2717 39.7383C62.8129 40.1096 63.455 40.3085 64.1128 40.3085H113.562C114.22 40.3085 114.863 40.1095 115.404 39.738L134.379 26.7146C136.528 25.2398 139.46 26.7677 139.46 29.3622V84.8174C139.46 85.6554 139.131 86.4604 138.543 87.0611L91.0029 135.618ZM176.083 49.9108C176.671 49.31 177 48.5049 177 47.6668V43.1439V3.69225C177 1.09801 174.068 -0.429993 171.92 1.04419L147.482 17.8091C146.606 18.4099 146.083 19.3998 146.083 20.4571V72.6212C146.083 75.5097 149.617 76.9356 151.645 74.8652L176.083 49.9108ZM1.01826 159.598C0.368421 158.99 0 158.142 0 157.255V117.107C0 114.253 3.46126 112.812 5.51008 114.812L28.3498 137.107C28.975 137.717 29.3245 138.553 29.3187 139.424L29.0581 178.405C29.0393 181.216 25.657 182.654 23.5974 180.727L1.01826 159.598ZM90.0651 144.581C89.8732 144.775 89.6367 144.918 89.3777 144.998C89.2104 145.05 89.0382 145.089 88.865 145.115C88.7893 145.127 88.7128 145.134 88.636 145.135C88.4186 145.135 88.2033 145.093 88.0025 145.01C87.8017 144.928 87.6194 144.806 87.466 144.654L75.1925 132.486C73.1508 130.461 69.6646 131.898 69.6646 134.763V169.336C69.6646 170.199 70.0131 171.025 70.6318 171.63L86.4311 187.076C87.7072 188.323 89.76 188.306 91.0146 187.037L105.296 172.593C105.891 171.991 106.225 171.181 106.225 170.338V136.003C106.225 133.115 102.691 131.689 100.663 133.759L90.0651 144.581ZM153.122 124.357C151.096 126.403 147.593 124.991 147.573 122.122L147.342 87.5014C147.336 86.6559 147.666 85.8422 148.259 85.2361L171.438 61.5642C173.466 59.4937 177 60.9195 177 63.8081V98.9315C177 99.7759 176.666 100.587 176.07 101.188L153.122 124.357ZM29.6446 88.6656C29.6503 87.8037 29.3077 86.9755 28.6936 86.3666L5.52797 63.3985C3.48629 61.3742 0 62.8107 0 65.6762V101.276C0 102.139 0.349224 102.966 0.969193 103.571L23.9019 125.953C25.9435 127.945 29.3927 126.522 29.4116 123.679L29.6446 88.6656ZM147.666 138.092C147.66 137.24 147.995 136.421 148.597 135.814L171.45 112.744C173.483 110.692 176.998 112.122 176.998 115.002V157.722C176.998 158.609 176.63 159.457 175.98 160.065L153.395 181.195C151.335 183.122 147.953 181.683 147.934 178.873L147.666 138.092Z" fill="white"/>
</svg>
